# xmcd CD database file
#
# Track frame offsets:
#	150
#	15927
#	34365
#	48190
#	63982
#	77290
#	96757
#	112947
#	130295
#	146467
#	161177
#	176995
#
# Disc length: 2674 seconds
#
# Revision: 0
# Processed by: cddbd v1.5PL3 Copyright (c) Steve Scherf et al.
# Submitted via: CDex 1.50Beta7
#
DISCID=950a700c
DTITLE=Tricky With Dj Muggs And Grease - Juxtapose
DYEAR=1999
DGENRE=Trip-Hop
TTITLE0=For Real
TTITLE1=Bom Bom Diggy
TTITLE2=Contractive
TTITLE3=She Said
TTITLE4=I Like The Girls
TTITLE5=Hot Like Sauna
TTITLE6=Call Me
TTITLE7=Wash My Soul
TTITLE8=Hot Like Sauna - Metal Mix
TTITLE9=Scrappy Love
TTITLE10=Who (Bonus Track)
TTITLE11=Bombing Bastards (Bonus Track)
EXTD=YEAR: 1999
EXTT0=
EXTT1=
EXTT2=
EXTT3=
EXTT4=
EXTT5=
EXTT6=
EXTT7=
EXTT8=
EXTT9=
EXTT10=
EXTT11=
PLAYORDER=
